<?xml version="1.0" standalone="no"?>
<!DOCTYPE svg PUBLIC "-//W3C//DTD SVG 20010904//EN"
 "http://www.w3.org/TR/2001/REC-SVG-20010904/DTD/svg10.dtd">
<svg version="1.0" xmlns="http://www.w3.org/2000/svg"
 width="700.000000pt" height="700.000000pt" viewBox="0 0 700.000000 700.000000"
 preserveAspectRatio="xMidYMid meet">
<metadata>
Created by potrace 1.11, written by Peter Selinger 2001-2013
</metadata>
<g transform="translate(0.000000,700.000000) scale(0.100000,-0.100000)"
fill="#000000" stroke="none">
<path d="M3378 6415 c-2 -1 -48 -5 -103 -9 -150 -10 -320 -36 -460 -70 -510
-124 -975 -383 -1350 -751 -389 -380 -652 -834 -788 -1355 -22 -83 -31 -126
-52 -240 -27 -151 -39 -295 -38 -450 0 -87 4 -114 23 -158 29 -66 103 -135
170 -157 56 -19 149 -18 196 1 17 7 147 80 290 162 142 82 279 160 304 174 25
14 248 141 495 283 248 141 470 269 495 283 25 13 50 28 55 32 6 4 35 21 65
37 147 80 419 239 455 266 213 163 317 333 316 517 -1 79 -6 105 -32 175 -73
196 -303 374 -634 490 -44 16 -84 32 -89 36 -11 10 222 84 324 102 117 22 156
28 235 37 87 11 394 15 445 6 14 -2 51 -7 84 -11 264 -30 588 -133 822 -260
84 -46 273 -167 315 -203 189 -158 285 -252 393 -387 254 -316 419 -682 484
-1075 28 -168 33 -229 32 -400 -1 -142 -2 -169 -15 -279 -92 -763 -577 -1449
-1271 -1795 -184 -92 -435 -179 -584 -202 -19 -3 -38 -8 -41 -10 -3 -2 -35 -6
-70 -10 -35 -3 -66 -8 -69 -9 -19 -11 -466 -23 -585 -16 -21 1 -6 11 134 88
37 20 140 77 231 128 91 51 197 109 235 130 39 21 87 49 107 62 21 13 40 23
43 23 3 0 49 25 101 55 53 30 97 55 99 55 2 0 27 14 55 30 28 17 79 45 113 64
34 19 121 66 192 106 72 40 159 88 195 108 161 87 205 127 240 219 21 56 20
151 -3 204 -47 111 -154 182 -270 182 -41 0 -79 -7 -108 -20 -24 -11 -249
-134 -499 -273 -250 -139 -477 -265 -505 -280 -27 -15 -129 -71 -225 -125 -96
-54 -195 -108 -220 -122 -25 -13 -52 -28 -60 -34 -8 -5 -85 -47 -170 -94 -85
-47 -162 -89 -170 -95 -8 -5 -46 -26 -85 -46 -38 -20 -82 -45 -97 -55 -14 -11
-28 -19 -30 -19 -15 0 -620 -344 -651 -370 -51 -43 -89 -120 -94 -195 -9 -116
57 -229 165 -282 l57 -28 840 0 c745 1 968 5 1040 20 11 2 39 7 63 9 267 33
630 147 897 284 733 375 1264 1020 1490 1807 19 66 36 134 39 150 3 17 8 41
11 55 11 51 34 186 39 230 2 25 8 77 12 115 9 84 10 382 1 480 -40 463 -184
903 -425 1294 -122 199 -246 355 -422 532 -220 221 -452 390 -722 528 -356
182 -664 272 -1078 317 -57 6 -376 14 -382 9z m-1258 -1186 c194 -43 370 -93
489 -140 110 -44 221 -101 221 -114 0 -12 -38 -43 -92 -74 -60 -34 -512 -293
-548 -313 -19 -11 -64 -37 -100 -58 -70 -41 -101 -58 -195 -110 -33 -18 -67
-39 -76 -46 -8 -8 -18 -14 -21 -14 -3 0 -111 -60 -239 -133 -129 -74 -255
-146 -282 -160 l-47 -27 6 28 c4 15 28 94 55 175 111 340 315 665 581 927 103
101 80 96 248 59z"/>
<path d="M3438 4365 c-53 -10 -128 -52 -183 -102 -11 -10 -67 -58 -125 -108
-58 -49 -161 -146 -230 -215 -341 -342 -531 -642 -596 -943 -17 -79 -20 -253
-5 -304 5 -18 8 -33 6 -33 -8 0 45 -143 66 -178 50 -85 145 -143 238 -147 74
-3 117 12 238 84 146 86 400 201 503 227 199 50 231 56 340 59 92 2 174 -13
265 -50 91 -36 172 -37 248 -2 192 90 230 336 73 481 -61 56 -233 120 -386
143 -116 17 -370 8 -485 -17 -22 -5 -51 -11 -65 -13 -44 -9 -163 -44 -255 -75
-49 -17 -91 -30 -92 -28 -2 2 20 34 48 72 163 218 363 419 627 629 251 200 82
584 -230 520z"/>
</g>
</svg>
