<?xml version="1.0" standalone="no"?>
<!DOCTYPE svg PUBLIC "-//W3C//DTD SVG 20010904//EN"
 "http://www.w3.org/TR/2001/REC-SVG-20010904/DTD/svg10.dtd">
<svg version="1.0" xmlns="http://www.w3.org/2000/svg"
 width="700.000000pt" height="700.000000pt" viewBox="0 0 700.000000 700.000000"
 preserveAspectRatio="xMidYMid meet">
<metadata>
Created by potrace 1.11, written by Peter Selinger 2001-2013
</metadata>
<g transform="translate(0.000000,700.000000) scale(0.100000,-0.100000)"
fill="#000000" stroke="none">
<path d="M3387 6684 c-1 -1 -51 -5 -112 -9 -60 -3 -121 -8 -135 -10 -14 -2
-47 -6 -75 -10 -409 -54 -847 -209 -1209 -427 -427 -258 -795 -622 -1065
-1053 -69 -110 -196 -358 -229 -447 -12 -32 -26 -66 -32 -75 -19 -35 -107
-316 -125 -403 -2 -8 -8 -35 -14 -60 -5 -25 -12 -58 -15 -75 -3 -16 -8 -39
-10 -50 -2 -11 -9 -56 -16 -100 -6 -44 -13 -91 -15 -105 -15 -86 -23 -357 -13
-396 12 -47 50 -76 105 -81 47 -4 56 1 408 203 198 114 380 218 405 232 25 14
214 122 420 240 206 118 393 225 415 237 477 270 856 493 913 538 180 144 264
310 233 458 -48 224 -294 402 -764 554 -105 35 -375 107 -449 121 -18 3 -40 7
-48 9 -8 2 -19 4 -25 4 -16 1 52 44 174 110 232 124 505 226 751 280 246 53
371 66 655 66 264 -1 409 -17 645 -71 999 -232 1798 -957 2125 -1927 41 -125
92 -316 101 -382 3 -16 7 -41 10 -53 3 -13 7 -43 10 -65 3 -23 7 -52 9 -64 26
-118 26 -618 1 -749 -2 -10 -7 -39 -10 -64 -3 -25 -8 -56 -11 -70 -3 -14 -7
-36 -10 -50 -14 -93 -84 -341 -134 -472 -151 -400 -362 -728 -666 -1034 -142
-143 -260 -243 -405 -345 -70 -50 -265 -169 -276 -169 -3 0 -18 -8 -32 -18
-40 -27 -262 -126 -376 -167 -149 -54 -360 -110 -495 -131 -18 -3 -42 -7 -52
-9 -10 -2 -49 -7 -86 -10 -37 -4 -77 -10 -88 -13 -24 -6 -1502 -16 -1495 -9 4
4 576 324 692 387 102 56 128 70 248 137 69 38 150 83 180 100 30 16 218 121
418 232 200 111 381 212 403 224 22 12 48 27 57 32 10 6 53 30 97 54 44 24 98
54 120 66 263 146 366 203 399 220 48 25 85 72 88 111 5 70 -53 134 -121 134
-37 0 6 23 -701 -370 -300 -167 -561 -311 -580 -322 -19 -11 -53 -30 -75 -42
-22 -13 -60 -34 -85 -47 -173 -95 -569 -315 -590 -328 -14 -8 -52 -29 -85 -47
-33 -18 -278 -154 -545 -302 -520 -290 -522 -291 -522 -368 0 -20 9 -48 19
-63 44 -59 -9 -56 1033 -55 525 0 984 4 1020 8 73 7 284 35 315 41 482 91 927
283 1320 569 38 28 81 60 94 71 327 271 559 536 752 860 210 353 342 712 414
1130 23 128 38 331 38 495 1 119 -9 322 -17 365 -2 11 -7 47 -12 80 -4 33 -8
62 -9 65 -1 3 -5 28 -9 55 -5 28 -21 105 -37 173 -196 834 -721 1557 -1455
2000 -357 215 -781 367 -1184 423 -41 5 -85 12 -98 14 -68 11 -466 27 -475 19z
m-1599 -923 c26 -5 101 -22 167 -36 230 -50 495 -127 602 -176 24 -10 45 -19
49 -19 16 0 211 -104 247 -132 129 -99 154 -162 99 -249 -52 -81 -134 -147
-307 -247 -88 -51 -1464 -836 -1525 -870 -25 -14 -114 -65 -198 -114 -85 -48
-157 -88 -160 -88 -3 0 -13 -6 -21 -14 -9 -7 -44 -28 -79 -46 -34 -18 -65 -36
-68 -41 -23 -38 -29 38 -10 141 3 14 7 48 11 75 37 297 176 702 344 998 11 20
30 52 40 71 126 222 398 541 619 726 l93 78 25 -23 c14 -13 46 -28 72 -34z"/>
<path d="M3445 4348 c-31 -17 -157 -121 -285 -232 -213 -187 -412 -397 -607
-640 -9 -11 -48 -69 -88 -130 -229 -348 -304 -654 -222 -909 57 -178 116 -205
261 -119 45 26 99 57 121 70 44 25 303 152 310 152 2 0 28 11 57 24 52 24 281
104 315 110 10 2 36 9 59 15 47 13 136 31 179 36 99 13 130 15 220 15 124 1
277 -28 375 -69 83 -36 123 -39 164 -12 37 25 55 57 56 99 0 70 -38 107 -154
151 -210 78 -426 95 -711 56 -258 -35 -649 -176 -944 -339 -46 -25 -86 -44
-88 -42 -12 12 -9 110 7 186 42 204 171 434 394 700 111 133 393 411 536 530
23 19 52 43 64 54 11 10 47 39 80 64 78 62 96 115 61 182 -27 52 -110 77 -160
48z"/>
</g>
</svg>
