<svg xmlns="http://www.w3.org/2000/svg" viewBox="0 0 24 24"><defs><style>.a{fill:none;stroke:#000;stroke-linecap:round;stroke-linejoin:round;stroke-width:2px;}</style></defs><path class="a" d="M13.61,21V13.46c0-.16,0-.2.2-.19h2.27c.06,0,.15.05.17-.08.07-.49.15-1,.22-1.47s.16-1.06.25-1.59c0-.2,0-.18-.15-.18H13.82c-.16,0-.22,0-.21-.21,0-.69,0-1.38,0-2.06a1.54,1.54,0,0,1,1.6-1.59h1.53c.09,0,.15,0,.15-.13q0-1.31,0-2.61c0-.1,0-.11-.13-.13a13.07,13.07,0,0,0-2-.22,5.41,5.41,0,0,0-2.42.35,3.59,3.59,0,0,0-2,2.09A6.61,6.61,0,0,0,10,7.74c0,.67,0,1.34,0,2,0,.15,0,.2-.19.2H7.31c-.15,0-.2,0-.2.2,0,1,0,1.95,0,2.92,0,.16,0,.21.2.2H9.76c.18,0,.23,0,.22.22v6.1c0,.47,0,.94,0,1.41Z"/></svg>