<svg xmlns="http://www.w3.org/2000/svg" viewBox="0 0 24 24"><defs><style>.a{fill:#fff;stroke:#000;stroke-miterlimit:10;stroke-width:2px;}</style></defs><path class="a" d="M20.74,16.83c-3.15-1.53-3.66-3.89-3.68-4.06a.55.55,0,0,1,.18-.6c.22-.2,1.22-.82,1.5-1,.46-.32.66-.64.51-1a.62.62,0,0,0-.62-.38,1,1,0,0,0-.25,0c-.51.11-1,.36-1.28.43l-.1,0c-.16,0-.21-.07-.2-.25a18.15,18.15,0,0,0,0-2.63,4.18,4.18,0,0,0-1.1-2.68A4.86,4.86,0,0,0,12,3.11,4.86,4.86,0,0,0,8.27,4.66a4.18,4.18,0,0,0-1.1,2.67A18.12,18.12,0,0,0,7.2,10c0,.18,0,.25-.2.25H6.9c-.28-.07-.77-.32-1.28-.43a1,1,0,0,0-.25,0,.6.6,0,0,0-.62.37c-.15.4,0,.72.51,1,.28.19,1.28.81,1.5,1a.54.54,0,0,1,.18.59c0,.18-.53,2.54-3.68,4.07-.19.09-.5.27.05.58.87.48,1.45.43,1.9.72s.16.78.44,1,1.35,0,2.65.41c1.1.36,1.76,1.38,3.7,1.38s2.62-1,3.7-1.38c1.3-.43,2.31-.17,2.65-.41s.06-.72.44-1,1-.24,1.9-.72C21.24,17.11,20.93,16.92,20.74,16.83Z"/></svg>