<svg xmlns="http://www.w3.org/2000/svg" width="24" height="24" viewBox="0 0 24 24"><defs><style>.a{fill:none;stroke:#000;stroke-linecap:round;stroke-linejoin:round;stroke-width:2px;fill-rule:evenodd;}</style></defs><path class="a" d="M10,21c.11-.78,0-5.25.38-5.55-2.68-.3-5.5-1.34-5.5-6A4.67,4.67,0,0,1,6.12,6.23,4.37,4.37,0,0,1,6.24,3s1-.33,3.32,1.24a11.4,11.4,0,0,1,6.06,0C17.93,2.7,18.94,3,18.94,3a4.31,4.31,0,0,1,.12,3.2,4.63,4.63,0,0,1,1.25,3.24c0,4.65-2.83,5.67-5.53,6a2.87,2.87,0,0,1,.83,2.24c0,1.62,0,2.92,0,3.32h-6c0-.29,0-1.05,0-2.06-3.37.73-4.08-1.62-4.08-1.62a3.2,3.2,0,0,0-1.34-1.77"/></svg>